# xmcd CD database file
#
# Track frame offsets:
#	150
#	13388
#	28620
#	40650
#	51763
#	67385
#	81800
#	92038
#	97438
#	112115
#	135113
#
# Disc length: 1919 seconds
#
# Revision: 2
# Processed by: cddbd v1.5.1PL2 Copyright (c) Steve Scherf et al.
# Submitted via: CDex 1.60beta1
#
DISCID=98077d0b
DTITLE=V.A (Production: Dj 'D)  - The Highlife Movement...ESTUARY
DYEAR=1999
DGENRE=underground hip-hop
TTITLE0=history
TTITLE1=the difference between you and me (abstract rude)
TTITLE2=95% (ginseng roo)
TTITLE3=the prayer
TTITLE4=the truth
TTITLE5=what means something (dr. doom (s.f.), aceyalone, lady blue)
TTITLE6=nighthawks (ginseng roo)
TTITLE7=the movement (instrumental) (lil' kenya)
TTITLE8=the question (lady blue)
TTITLE9=money habits (ginseng roo)
TTITLE10=history, part 2 (outro) (mikah 9 on the h.l. train)
EXTD=YEAR: 1999
EXTT0=
EXTT1=
EXTT2=
EXTT3=
EXTT4=
EXTT5=
EXTT6=
EXTT7=
EXTT8=
EXTT9=
EXTT10=
PLAYORDER=
